<svg width="217" height="40" viewBox="0 0 217 40" fill="none" xmlns="http://www.w3.org/2000/svg">
<path fill-rule="evenodd" clip-rule="evenodd" d="M0.558892 4H0V29.0919C0 32.9044 3.09563 36 6.90813 36H7.46703V10.9081C7.46703 7.09563 4.3714 4 0.558892 4ZM22.5926 8.14917L31.6455 18.9389C31.9042 19.248 32.0267 19.6262 32.0188 19.9995C32.0267 20.3727 31.9042 20.7509 31.6455 21.06L22.5926 31.8497C19.9424 35.0086 15.2323 35.4203 12.0734 32.77L22.7891 19.9995L12.0734 7.22888C15.2323 4.57859 19.9424 4.99035 22.5926 8.14917Z" fill="#FF2D85"/>
<path d="M49.843 31.5V9.1H60.627C62.7177 9.1 64.5204 9.44133 66.035 10.124C67.571 10.8067 68.755 11.788 69.587 13.068C70.419 14.3267 70.835 15.82 70.835 17.548C70.835 19.276 70.419 20.7693 69.587 22.028C68.755 23.2867 67.571 24.268 66.035 24.972C64.5204 25.6547 62.7177 25.996 60.627 25.996H54.035L57.395 22.764V31.5H49.843ZM57.395 23.596L54.035 20.172H60.147C61.1924 20.172 61.9604 19.9373 62.451 19.468C62.963 18.9987 63.219 18.3587 63.219 17.548C63.219 16.7373 62.963 16.0973 62.451 15.628C61.9604 15.1587 61.1924 14.924 60.147 14.924H54.035L57.395 11.5V23.596ZM82.3358 31.82C80.3518 31.82 78.5918 31.436 77.0558 30.668C75.5411 29.8787 74.3465 28.8013 73.4718 27.436C72.5971 26.0707 72.1598 24.5027 72.1598 22.732C72.1598 20.9613 72.5971 19.3933 73.4718 18.028C74.3465 16.6627 75.5411 15.596 77.0558 14.828C78.5918 14.06 80.3518 13.676 82.3358 13.676C84.3198 13.676 86.0798 14.06 87.6158 14.828C89.1518 15.596 90.3465 16.6627 91.1998 18.028C92.0745 19.3933 92.5118 20.9613 92.5118 22.732C92.5118 24.5027 92.0745 26.0707 91.1998 27.436C90.3465 28.8013 89.1518 29.8787 87.6158 30.668C86.0798 31.436 84.3198 31.82 82.3358 31.82ZM82.3358 26.188C82.8691 26.188 83.3491 26.06 83.7758 25.804C84.2025 25.548 84.5438 25.164 84.7998 24.652C85.0558 24.1187 85.1838 23.4787 85.1838 22.732C85.1838 21.964 85.0558 21.3347 84.7998 20.844C84.5438 20.332 84.2025 19.948 83.7758 19.692C83.3491 19.436 82.8691 19.308 82.3358 19.308C81.8025 19.308 81.3225 19.436 80.8958 19.692C80.4691 19.948 80.1278 20.332 79.8718 20.844C79.6158 21.3347 79.4878 21.964 79.4878 22.732C79.4878 23.4787 79.6158 24.1187 79.8718 24.652C80.1278 25.164 80.4691 25.548 80.8958 25.804C81.3225 26.06 81.8025 26.188 82.3358 26.188ZM94.7753 31.5V7.756H102.007V31.5H94.7753ZM109.053 38.028C108.093 38.028 107.111 37.8787 106.109 37.58C105.127 37.3027 104.338 36.9293 103.741 36.46L106.141 31.5C106.503 31.7773 106.909 32.0013 107.357 32.172C107.826 32.3427 108.274 32.428 108.701 32.428C109.341 32.428 109.831 32.2893 110.173 32.012C110.514 31.756 110.791 31.3613 111.005 30.828L111.741 28.972L112.253 28.268L117.853 13.996H124.701L117.501 31.852C116.861 33.452 116.114 34.7 115.261 35.596C114.429 36.492 113.49 37.1213 112.445 37.484C111.421 37.8467 110.29 38.028 109.053 38.028ZM110.749 32.3L103.133 13.996H110.557L115.805 27.628L110.749 32.3ZM148.975 13.676C150.297 13.676 151.481 13.9533 152.527 14.508C153.593 15.0413 154.425 15.884 155.023 17.036C155.641 18.188 155.951 19.6813 155.951 21.516V31.5H148.719V22.764C148.719 21.676 148.537 20.908 148.175 20.46C147.812 19.9907 147.343 19.756 146.767 19.756C146.34 19.756 145.956 19.8627 145.615 20.076C145.273 20.2893 144.996 20.6307 144.783 21.1C144.591 21.548 144.495 22.1667 144.495 22.956V31.5H137.263V22.764C137.263 21.676 137.092 20.908 136.751 20.46C136.409 19.9907 135.929 19.756 135.311 19.756C134.884 19.756 134.5 19.8627 134.159 20.076C133.817 20.2893 133.54 20.6307 133.327 21.1C133.135 21.548 133.039 22.1667 133.039 22.956V31.5H125.807V13.996H132.687V19.02L131.279 17.612C131.94 16.2893 132.825 15.308 133.935 14.668C135.044 14.0067 136.281 13.676 137.647 13.676C139.183 13.676 140.537 14.0813 141.711 14.892C142.905 15.6813 143.705 16.94 144.111 18.668L141.903 18.316C142.543 16.8653 143.471 15.7347 144.687 14.924C145.924 14.092 147.353 13.676 148.975 13.676ZM169.68 31.5V28.396L169.168 27.564V21.676C169.168 20.8227 168.901 20.172 168.368 19.724C167.856 19.276 167.013 19.052 165.84 19.052C165.05 19.052 164.25 19.18 163.44 19.436C162.629 19.6707 161.936 20.0013 161.36 20.428L159.056 15.66C160.08 15.02 161.306 14.5293 162.736 14.188C164.165 13.8467 165.562 13.676 166.928 13.676C169.936 13.676 172.261 14.348 173.904 15.692C175.568 17.036 176.4 19.1693 176.4 22.092V31.5H169.68ZM164.72 31.82C163.29 31.82 162.096 31.5747 161.136 31.084C160.176 30.5933 159.45 29.9427 158.96 29.132C158.469 28.3 158.224 27.3827 158.224 26.38C158.224 25.2493 158.512 24.2893 159.088 23.5C159.664 22.7107 160.538 22.1133 161.712 21.708C162.906 21.3027 164.41 21.1 166.224 21.1H169.872V24.588H167.376C166.608 24.588 166.042 24.716 165.68 24.972C165.338 25.2067 165.168 25.5693 165.168 26.06C165.168 26.4653 165.317 26.8067 165.616 27.084C165.936 27.34 166.362 27.468 166.896 27.468C167.386 27.468 167.834 27.34 168.24 27.084C168.666 26.8067 168.976 26.38 169.168 25.804L170.096 27.948C169.818 29.2493 169.232 30.22 168.336 30.86C167.44 31.5 166.234 31.82 164.72 31.82ZM187.973 31.82C185.563 31.82 183.685 31.244 182.341 30.092C180.997 28.9187 180.325 27.1267 180.325 24.716V10.06H187.557V24.652C187.557 25.1853 187.696 25.6013 187.973 25.9C188.272 26.1987 188.635 26.348 189.061 26.348C189.68 26.348 190.224 26.188 190.693 25.868L192.421 30.892C191.867 31.212 191.195 31.4467 190.405 31.596C189.637 31.7453 188.827 31.82 187.973 31.82ZM177.925 20.236V14.956H191.141V20.236H177.925ZM206.404 13.676C207.748 13.676 208.964 13.9533 210.052 14.508C211.14 15.0413 211.993 15.884 212.612 17.036C213.252 18.188 213.572 19.6813 213.572 21.516V31.5H206.34V22.764C206.34 21.676 206.148 20.908 205.764 20.46C205.38 19.9907 204.857 19.756 204.196 19.756C203.705 19.756 203.247 19.8733 202.82 20.108C202.415 20.3213 202.084 20.684 201.828 21.196C201.593 21.708 201.476 22.4013 201.476 23.276V31.5H194.244V7.756H201.476V19.116L199.748 17.644C200.431 16.3213 201.348 15.3293 202.5 14.668C203.673 14.0067 204.975 13.676 206.404 13.676Z" fill="#FF2D85"/>
</svg>
