<svg width="11" height="16" viewBox="0 0 11 16" fill="none" xmlns="http://www.w3.org/2000/svg">
<path fill-rule="evenodd" clip-rule="evenodd" d="M8.76095 0.193683C9.10509 -0.099003 9.61695 -0.054988 9.9042 0.291994C10.1915 0.638975 10.1453 1.15753 9.8012 1.45021L2.11804 7.98453L9.79995 14.5178C10.1441 14.8105 10.1902 15.329 9.90295 15.676C9.61569 16.023 9.10384 16.067 8.7597 15.7743L0.391595 8.65748C0.335366 8.61748 0.283298 8.56948 0.23708 8.51362C0.137104 8.39287 0.0775185 8.25134 0.056798 8.10578C0.0224838 7.8804 0.0802784 7.64225 0.235824 7.45438C0.285811 7.394 0.342596 7.34278 0.404118 7.30094L8.76095 0.193683Z" fill="black"/>
</svg>
