<svg width="20" height="20" viewBox="0 0 20 20" fill="none" xmlns="http://www.w3.org/2000/svg">
<path d="M10.6366 15.9073C10.6366 16.1909 10.8657 16.42 11.1493 16.42H18.9548C19.2384 16.42 19.4675 16.1909 19.4675 15.9073C19.4675 15.6236 19.2384 15.3946 18.9548 15.3946H11.1493C10.8657 15.3946 10.6366 15.6236 10.6366 15.9073ZM18.9548 18.1764H7.44026C7.15662 18.1764 6.92753 18.4055 6.92753 18.6891C6.92753 18.9727 7.15662 19.2018 7.44026 19.2018H18.9548C19.2384 19.2018 19.4675 18.9727 19.4675 18.6891C19.4675 18.4055 19.2384 18.1764 18.9548 18.1764ZM7.82753 16.2891C7.82753 16.2891 7.83844 16.2782 7.84389 16.2673C7.8548 16.2564 7.87117 16.2454 7.88208 16.2291L16.1184 7.99274L17.6566 6.45455C18.3003 5.81091 18.6548 4.95456 18.6548 4.04365C18.6548 3.13274 18.3003 2.27635 17.6566 1.63272L17.2039 1.18001C16.5603 0.536379 15.7039 0.181824 14.793 0.181824C13.8821 0.181824 13.0257 0.536379 12.3821 1.18001L2.61299 10.9491C2.61299 10.9491 2.59117 10.9764 2.58026 10.9873C2.57481 10.9927 2.56389 10.9982 2.55844 11.0036C2.53662 11.0254 2.52025 11.0473 2.50389 11.0691H2.49845C2.49845 11.0691 2.49844 11.08 2.49299 11.0855C1.33662 12.5255 0.305712 17.6909 0.191166 18.2909C0.136621 18.5691 0.322075 18.8364 0.600257 18.8909C0.671166 18.9073 0.747527 18.9018 0.818436 18.8909C1.40207 18.7491 6.4039 17.5 7.7839 16.3273C7.80572 16.3109 7.82209 16.3 7.83845 16.2837L7.82753 16.2891ZM3.63844 11.3746L11.2039 3.80911L15.0275 7.63818L7.46208 15.2036L3.63844 11.38V11.3746ZM13.1021 1.91091C13.5548 1.45818 14.1494 1.21274 14.7875 1.21274C15.4257 1.21274 16.0203 1.45818 16.473 1.91091L16.9257 2.36364C17.3784 2.81637 17.6239 3.4109 17.6239 4.04908C17.6239 4.68726 17.3784 5.28182 16.9257 5.73455L15.753 6.90729L11.9294 3.07819L13.1021 1.90545V1.91091ZM2.99481 12.1873L6.66027 15.8527C5.54208 16.4745 3.16389 17.2164 1.34753 17.7018C1.75116 15.8145 2.40572 13.3327 2.99481 12.1873Z" fill="black"/>
</svg>
