<svg width="11" height="16" viewBox="0 0 11 16" fill="none" xmlns="http://www.w3.org/2000/svg">
<path fill-rule="evenodd" clip-rule="evenodd" d="M8.75997 0.193683C9.10411 -0.099003 9.61597 -0.054988 9.90323 0.291994C10.1905 0.638975 10.1444 1.15753 9.80022 1.45021L2.11706 7.98453L9.79897 14.5178C10.1431 14.8105 10.1892 15.329 9.90198 15.676C9.61472 16.023 9.10286 16.067 8.75872 15.7743L0.390618 8.65748C0.33439 8.61748 0.282322 8.56948 0.236103 8.51362C0.136127 8.39287 0.0765419 8.25134 0.0558214 8.10578C0.0215073 7.8804 0.0793018 7.64225 0.234847 7.45438C0.284835 7.394 0.341619 7.34278 0.403141 7.30094L8.75997 0.193683Z" fill="black"/>
</svg>
