<svg width="21" height="22" viewBox="0 0 21 22" fill="none" xmlns="http://www.w3.org/2000/svg">
<path d="M10.7985 21.0036C5.20763 21.0036 0.636719 16.4218 0.636719 10.82C0.636719 5.21817 5.21309 0.636353 10.7985 0.636353C16.384 0.636353 20.9604 5.21817 20.9604 10.82C20.9604 16.4218 16.384 21.0036 10.7985 21.0036ZM14.0767 18.6309C16.1058 17.7636 17.7258 16.1382 18.5876 14.1091C19.4767 12.0036 19.4767 9.6309 18.5876 7.5309C17.7204 5.49635 16.1058 3.87635 14.0767 3.00908C11.9822 2.11999 9.6149 2.11999 7.52035 3.00908C5.48581 3.87635 3.87126 5.50181 3.00399 7.5309C2.1149 9.63635 2.1149 12.0091 3.00399 14.1091C3.87126 16.1436 5.48581 17.7636 7.52035 18.6309C9.6149 19.52 11.9822 19.52 14.0767 18.6309Z" fill="#E5E5E5"/>
<path d="M6.39452 14.33L14.3309 6.39367C14.7345 5.99003 15.1327 5.99003 15.5363 6.39367C15.94 6.79731 15.94 7.19549 15.5363 7.59912L7.59998 15.5355C7.19635 15.9391 6.79816 15.9391 6.39452 15.5355C5.99089 15.1319 5.99089 14.7337 6.39452 14.33Z" fill="#E5E5E5"/>
<path d="M14.3309 15.5355L6.39452 7.59912C5.99089 7.19549 5.99089 6.79731 6.39452 6.39367C6.79816 5.99003 7.19635 5.99003 7.59998 6.39367L15.5363 14.33C15.94 14.7337 15.94 15.1319 15.5363 15.5355C15.1327 15.9391 14.7345 15.9391 14.3309 15.5355Z" fill="#E5E5E5"/>
</svg>
