<svg width="23" height="32" viewBox="0 0 23 32" fill="none" xmlns="http://www.w3.org/2000/svg">
<path d="M0 32V27.4286H4.57143V32H0ZM9.14286 32V27.4286H13.7143V32H9.14286ZM18.2857 32V27.4286H22.8571V32H18.2857ZM0 22.8571V18.2857H4.57143V22.8571H0ZM9.14286 22.8571V18.2857H13.7143V22.8571H9.14286ZM18.2857 22.8571V18.2857H22.8571V22.8571H18.2857ZM0 13.7143V9.14286H4.57143V13.7143H0ZM9.14286 13.7143V9.14286H13.7143V13.7143H9.14286ZM18.2857 13.7143V9.14286H22.8571V13.7143H18.2857ZM0 4.57143V0H4.57143V4.57143H0ZM9.14286 4.57143V0H13.7143V4.57143H9.14286ZM18.2857 4.57143V0H22.8571V4.57143H18.2857Z" fill="#C4C4C4"/>
</svg>
