<svg width="20" height="20" viewBox="0 0 20 20" fill="none" xmlns="http://www.w3.org/2000/svg">
<path d="M16.836 15.5318H2.96329C2.08147 15.5318 1.36328 14.8137 1.36328 13.9319V4.3273C1.36328 3.44549 2.08147 2.72729 2.96329 2.72729H16.836C17.7178 2.72729 18.436 3.44549 18.436 4.3273V13.9319C18.436 14.8137 17.7178 15.5318 16.836 15.5318ZM2.96329 3.79094C2.66784 3.79094 2.43147 4.03184 2.43147 4.32275V13.9273C2.43147 14.2228 2.67238 14.4591 2.96329 14.4591H16.836C17.1315 14.4591 17.3678 14.2182 17.3678 13.9273V4.32275C17.3678 4.0273 17.1269 3.79094 16.836 3.79094H2.96329Z" fill="black" stroke="black" stroke-width="0.5" stroke-miterlimit="10"/>
<path d="M4.5625 16.5953H15.2352V17.6635H4.5625V16.5953Z" fill="black" stroke="black" stroke-width="0.5" stroke-miterlimit="10"/>
<path d="M8.7773 7.08181C8.20457 6.77727 7.76367 7.00909 7.76367 7.59545V10.6864C7.76367 11.2727 8.20004 11.5045 8.77276 11.1954L11.5591 9.6909C12.1273 9.38181 12.1364 8.8818 11.5591 8.57726L8.77276 7.08636L8.7773 7.08181Z" fill="black" stroke="black" stroke-width="0.5" stroke-miterlimit="10"/>
</svg>
