<svg width="24" height="24" viewBox="0 0 24 24" fill="none" xmlns="http://www.w3.org/2000/svg">
<path d="M20.8422 1.09091H3.30581C2.38399 1.09091 1.63672 1.83818 1.63672 2.76V20.2909C1.63672 21.2127 2.38399 21.96 3.30581 21.96H20.8367C21.7585 21.96 22.5058 21.2127 22.5058 20.2909V2.76C22.5058 1.83818 21.7585 1.09091 20.8367 1.09091H20.8422ZM3.31126 2.76H20.8422V20.2909H3.30581V2.76H3.31126Z" fill="black"/>
<path d="M11.9239 17.6466C11.5584 17.6466 11.2639 17.3466 11.2584 16.9866V15.9939L11.1602 15.9666C10.7893 15.8794 10.4348 15.7321 10.1129 15.5248C9.86204 15.3721 9.63295 15.1866 9.43658 14.9739C9.19658 14.6957 9.22386 14.2757 9.50204 14.0357C9.78022 13.7957 10.2002 13.823 10.4402 14.1012C10.4948 14.1666 10.6311 14.2812 10.822 14.4012C11.1711 14.6194 11.542 14.7285 11.9293 14.7285C12.3929 14.7285 12.8129 14.5648 13.0584 14.2921C13.2002 14.1503 13.2711 13.9539 13.2548 13.7575C13.2111 13.343 12.8566 13.043 11.7548 12.4648L11.4984 12.3339C10.6475 11.8921 10.1729 11.5812 9.85658 11.2594C9.51295 10.9157 9.34385 10.5394 9.28931 10.0048C9.22931 9.47027 9.39295 8.94117 9.74204 8.53208C10.0857 8.11208 10.5929 7.79572 11.1711 7.65391L11.2693 7.62662V6.62845C11.2911 6.26299 11.6075 5.97936 11.9729 6.00118C12.3111 6.023 12.5784 6.29027 12.6002 6.62845V7.62118L12.6984 7.64299C13.0748 7.73026 13.4239 7.87755 13.7457 8.08482C14.1166 8.31391 14.3293 8.53208 14.422 8.63572C14.6566 8.9139 14.6184 9.33391 14.3402 9.56846C14.0675 9.79755 13.6639 9.77026 13.4239 9.50299C13.3093 9.38844 13.1839 9.28481 13.042 9.20299C12.7148 8.99027 12.3275 8.87572 11.9348 8.87572C11.4766 8.87572 11.0511 9.03937 10.8057 9.31209C10.6639 9.45391 10.5929 9.65026 10.6093 9.84663C10.6529 10.2612 11.0075 10.5612 12.1093 11.1339L12.3657 11.2648C13.2166 11.7066 13.6911 12.0175 14.0075 12.3394C14.3457 12.683 14.5202 13.0594 14.5802 13.5939C14.6402 14.123 14.482 14.6303 14.1275 15.0666C13.7566 15.503 13.2548 15.8139 12.6984 15.9448L12.6002 15.9721V16.9703C12.6002 17.3357 12.3057 17.6357 11.9402 17.6357L11.9239 17.6466Z" fill="black"/>
</svg>
