<svg width="22" height="21" viewBox="0 0 22 21" fill="none" xmlns="http://www.w3.org/2000/svg">
<path d="M4.10975 0.804443L3.05375 1.85894L4.625 3.42944L5.6795 2.37494L4.109 0.804443H4.10975ZM17.891 0.804443L16.3197 2.37494L17.375 3.42944L18.9455 1.85969L17.8903 0.804443H17.891ZM11 1.27244C10.7525 1.27544 10.502 1.28969 10.25 1.32044C10.2425 1.32044 10.235 1.31894 10.2275 1.32044C7.1855 1.66919 4.7645 4.12694 4.34375 7.15544C4.00775 9.59294 5.01275 11.8032 6.6875 13.2267C7.37256 13.8113 7.83592 14.6136 8 15.4992V19.9992H9.71C9.971 20.4469 10.4473 20.7492 11 20.7492C11.5527 20.7492 12.029 20.4469 12.29 19.9992H14V16.9992H14.0705V16.1082C14.0705 15.0087 14.642 13.9002 15.5705 13.0384C16.8125 11.7949 17.75 10.0287 17.75 7.99994C17.75 4.29494 14.7005 1.23794 11 1.27244ZM11 2.77244C13.8988 2.73194 16.25 5.10494 16.25 7.99994C16.25 9.57044 15.5225 10.9534 14.5153 11.9599L14.5392 11.9839C13.5383 12.907 12.891 14.1505 12.7092 15.4999H9.42875C9.26375 14.2144 8.7125 12.9702 7.67075 12.0777C6.3455 10.9527 5.55575 9.25769 5.81975 7.34369C6.1475 4.98119 8.0645 3.08144 10.4135 2.82119C10.6074 2.79415 10.8027 2.77813 10.9985 2.77319L11 2.77244ZM0.5 7.99994V9.49994H2.75V7.99994H0.5ZM19.25 7.99994V9.49994H21.5V7.99994H19.25ZM4.625 14.0704L3.0545 15.6402L4.10975 16.6954L5.67875 15.1249L4.625 14.0704ZM17.375 14.0704L16.3205 15.1249L17.8903 16.6954L18.9455 15.6402L17.375 14.0704ZM9.5 16.9999H12.5V18.4999H9.5V16.9999Z" fill="#4B4B4B"/>
</svg>
