<svg width="21" height="19" viewBox="0 0 21 19" fill="none" xmlns="http://www.w3.org/2000/svg">
<path d="M8.08528 0.72728C8.85437 0.72728 9.59073 1.06546 10.0925 1.6491H15.9889C18.1653 1.6491 19.9489 3.37819 20.0144 5.55456V5.67456V6.06183H20.0089C20.0089 6.09455 20.0144 6.12183 20.0144 6.15456V14.8764C20.0144 17.1018 18.2144 18.9018 15.9889 18.9018H4.2071C1.98164 18.9018 0.181641 17.1018 0.181641 14.8764V4.75274C0.181641 2.52728 1.98164 0.72728 4.2071 0.72728H8.08528ZM8.08528 2.33638H4.2071C2.87073 2.33638 1.79073 3.41637 1.79073 4.75274V14.8764C1.79073 16.2127 2.87073 17.2928 4.2071 17.2928H15.9889C17.3253 17.2928 18.4053 16.2127 18.4053 14.8764V6.95638H12.3235C11.2435 6.95638 10.2725 6.29637 9.86891 5.29819L9.83073 5.19455L9.06709 3.0291C8.91982 2.61455 8.5271 2.33638 8.09073 2.33638H8.08528ZM8.718 12.6891C9.16527 12.6891 9.52528 13.0491 9.52528 13.4964C9.52528 13.9164 9.20346 14.2655 8.78891 14.2982H8.72346H5.04164C4.59437 14.2982 4.23436 13.9382 4.23436 13.4909C4.23436 13.0709 4.55619 12.7218 4.97073 12.6891H5.03618H8.718ZM15.9889 3.2582H10.8507L11.3471 4.66002C11.4835 5.04729 11.838 5.32001 12.2471 5.34728H12.3235H18.3835C18.2253 4.18546 17.2598 3.30729 16.0871 3.2582H15.9889Z" fill="black"/>
</svg>
